<svg width="61" height="60" viewBox="0 0 61 60" fill="none" xmlns="http://www.w3.org/2000/svg">
    <g clip-path="url(#clip0_6609_35338)">
        <path
            d="M30.5 1.38462C36.1596 1.38462 41.6921 3.06288 46.3979 6.20718C51.1036 9.35148 54.7714 13.8206 56.9372 19.0494C59.103 24.2781 59.6697 30.0317 58.5656 35.5826C57.4614 41.1334 54.7361 46.2322 50.7341 50.2341C46.7322 54.2361 41.6334 56.9614 36.0826 58.0655C30.5318 59.1697 24.7782 58.603 19.5494 56.4372C14.3206 54.2713 9.85149 50.6036 6.70719 45.8979C3.56289 41.1921 1.88463 35.6596 1.88463 30C1.89318 22.4134 4.91075 15.1399 10.2753 9.77531C15.6399 4.41074 22.9134 1.39317 30.5 1.38462ZM30.5 0C24.5666 0 18.7664 1.75947 13.8329 5.05591C8.89943 8.35235 5.05426 13.0377 2.78363 18.5195C0.512998 24.0013 -0.0811015 30.0333 1.07646 35.8527C2.23401 41.6721 5.09123 47.0176 9.28681 51.2132C13.4824 55.4088 18.8279 58.266 24.6473 59.4236C30.4667 60.5811 36.4987 59.987 41.9805 57.7164C47.4623 55.4458 52.1477 51.6006 55.4441 46.6671C58.7405 41.7336 60.5 35.9334 60.5 30C60.5 22.0435 57.3393 14.4129 51.7132 8.7868C46.0871 3.16071 38.4565 0 30.5 0Z"
            fill="#BFBFBF" />
        <path
            d="M30.5003 43.8461C38.0834 43.8461 44.2311 42.5123 44.2311 40.8646V37.2507C43.253 37.6811 42.2318 38.006 41.1849 38.22C37.6685 38.9298 34.0874 39.2685 30.5003 39.2307C26.9137 39.2731 23.3325 38.939 19.8157 38.2338C18.7688 38.0198 17.7476 37.6949 16.7695 37.2646V40.8784C16.7695 42.5123 22.9172 43.8461 30.5003 43.8461Z"
            fill="#BFBFBF" />
        <path
            d="M30.5003 37.62C33.8982 37.6562 37.2911 37.347 40.6265 36.697C42.8188 36.2354 43.8018 35.7277 44.2311 35.4093V31.0247C43.252 31.4512 42.2311 31.7744 41.1849 31.9893C37.6684 32.6967 34.087 33.0309 30.5003 32.9862C26.9136 33.0309 23.3322 32.6967 19.8157 31.9893C18.7695 31.7744 17.7486 31.4512 16.7695 31.0247V35.4185C17.1988 35.737 18.1541 36.2308 20.3741 36.7062C23.7099 37.3531 27.1027 37.6593 30.5003 37.62Z"
            fill="#BFBFBF" />
        <path
            d="M30.5003 25.1584C33.8981 25.1921 37.2907 24.8828 40.6265 24.2353C42.8188 23.7738 43.8018 23.2661 44.2311 22.943V19.1353C44.2311 17.4877 38.0834 16.1538 30.5003 16.1538C22.9172 16.1538 16.7695 17.4877 16.7695 19.1353V22.9615C17.1988 23.28 18.1541 23.7738 20.3741 24.2492C23.7104 24.892 27.1029 25.1967 30.5003 25.1584ZM19.1788 19.1584C20.1156 18.8316 21.0793 18.5875 22.0588 18.4292C24.8482 17.9635 27.6723 17.7365 30.5003 17.7507C33.3277 17.7289 36.1517 17.9482 38.9418 18.4061C39.9213 18.5645 40.885 18.8085 41.8218 19.1353C40.8844 19.4559 39.9208 19.6938 38.9418 19.8461C36.152 20.308 33.3281 20.5334 30.5003 20.52C27.6725 20.5334 24.8486 20.308 22.0588 19.8461C21.0793 19.6878 20.1156 19.4438 19.1788 19.1169V19.1584Z"
            fill="#BFBFBF" />
        <path
            d="M30.5003 31.3846C33.8982 31.4208 37.2911 31.1115 40.6265 30.4615C42.8188 30 43.8018 29.4923 44.2311 29.1738V24.7938C43.2522 25.2221 42.2313 25.5469 41.1849 25.7631C37.6684 26.4713 34.0872 26.8085 30.5003 26.7692C26.9137 26.8116 23.3325 26.4774 19.8157 25.7723C18.7693 25.5562 17.7484 25.2313 16.7695 24.8031V29.1969C17.1988 29.5154 18.1541 30.0138 20.3741 30.4846C23.7103 31.1268 27.1031 31.4284 30.5003 31.3846Z"
            fill="#BFBFBF" />
        <path d="M37.1738 34.5L48.7123 46.5969" stroke="#FF0000" stroke-width="5"
            stroke-miterlimit="10" stroke-linecap="round" />
        <path d="M48.7123 34.5L37.1738 46.5969" stroke="#FF0000" stroke-width="5"
            stroke-miterlimit="10" stroke-linecap="round" />
    </g>
    <defs>
        <clipPath id="clip0_6609_35338">
            <rect width="60" height="60" fill="white" transform="translate(0.5)" />
        </clipPath>
    </defs>
</svg>
    